<svg width="367" height="26" viewBox="0 0 367 26" fill="none" xmlns="http://www.w3.org/2000/svg">
<g clip-path="url(#clip0_1_3689)">
<path d="M212.278 5.36328H196.292V19.9392H212.278V5.36328Z" fill="white"/>
<path fill-rule="evenodd" clip-rule="evenodd" d="M204.05 0.896484C210.537 0.896484 215.805 6.16364 215.805 12.6513C215.805 19.1389 210.537 24.4061 204.05 24.4061C197.562 24.4061 192.295 19.1389 192.295 12.6513C192.295 6.16364 197.562 0.896484 204.05 0.896484ZM200.375 19.2574V10.0776H197.323V19.2574H200.375ZM211.377 19.2574V13.9932C211.377 11.1735 209.872 9.86176 207.864 9.86176C206.246 9.86176 205.52 10.752 205.114 11.3773V10.0776H202.063C202.104 10.9389 202.063 19.2574 202.063 19.2574H205.114V14.1308C205.114 13.8564 205.134 13.5821 205.215 13.3859C205.435 12.8379 205.938 12.2702 206.781 12.2702C207.884 12.2702 208.326 13.1123 208.326 14.3458V19.2574H211.377ZM198.869 5.65121C197.825 5.65121 197.143 6.33767 197.143 7.23741C197.143 8.1182 197.805 8.82357 198.829 8.82357H198.849C199.913 8.82357 200.575 8.1182 200.575 7.23741C200.555 6.33767 199.913 5.65121 198.869 5.65121Z" fill="black"/>
<path d="M204.05 24.8544C210.789 24.8544 216.253 19.3909 216.253 12.6513C216.253 5.91174 210.789 0.448242 204.05 0.448242C197.31 0.448242 191.847 5.91174 191.847 12.6513C191.847 19.3909 197.31 24.8544 204.05 24.8544Z" stroke="white"/>
</g>
<g clip-path="url(#clip1_1_3689)">
<path d="M311.025 5.34131H296.64V19.9611H311.025V5.34131Z" fill="white" stroke="#979797"/>
<path fill-rule="evenodd" clip-rule="evenodd" d="M303.95 0.896484C310.438 0.896484 315.705 6.16364 315.705 12.6513C315.705 19.1389 310.438 24.4061 303.95 24.4061C297.463 24.4061 292.195 19.1389 292.195 12.6513C292.195 6.16364 297.463 0.896484 303.95 0.896484ZM303.95 5.30453C301.955 5.30453 301.705 5.31298 300.921 5.34875C300.139 5.38443 299.605 5.50863 299.138 5.69023C298.655 5.87799 298.245 6.1292 297.837 6.53764C297.428 6.94607 297.177 7.35579 296.989 7.83888C296.808 8.30618 296.683 8.84024 296.648 9.62221C296.612 10.4058 296.603 10.656 296.603 12.6513C296.603 14.6465 296.612 14.8967 296.648 15.6803C296.683 16.4623 296.808 16.9964 296.989 17.4637C297.177 17.9468 297.428 18.3565 297.837 18.765C298.245 19.1734 298.655 19.4246 299.138 19.6124C299.605 19.7939 300.139 19.9181 300.921 19.9538C301.705 19.9896 301.955 19.998 303.95 19.998C305.945 19.998 306.196 19.9896 306.979 19.9538C307.761 19.9181 308.295 19.7939 308.763 19.6124C309.246 19.4246 309.655 19.1734 310.064 18.765C310.472 18.3565 310.724 17.9468 310.911 17.4637C311.093 16.9964 311.217 16.4623 311.253 15.6803C311.289 14.8967 311.297 14.6465 311.297 12.6513C311.297 10.656 311.289 10.4058 311.253 9.62221C311.217 8.84024 311.093 8.30618 310.911 7.83888C310.724 7.35579 310.472 6.94607 310.064 6.53764C309.655 6.1292 309.246 5.87799 308.763 5.69023C308.295 5.50863 307.761 5.38443 306.979 5.34875C306.196 5.31298 305.945 5.30453 303.95 5.30453ZM303.95 6.62828C305.912 6.62828 306.144 6.63576 306.919 6.67112C307.635 6.70381 308.024 6.82347 308.283 6.92407C308.626 7.05733 308.871 7.21657 309.128 7.47366C309.385 7.7307 309.544 7.97549 309.677 8.31839C309.778 8.57728 309.898 8.96624 309.93 9.68255C309.966 10.4573 309.973 10.6896 309.973 12.6513C309.973 14.6129 309.966 14.8453 309.93 15.62C309.898 16.3363 309.778 16.7253 309.677 16.9842C309.544 17.3271 309.385 17.5718 309.128 17.8289C308.871 18.086 308.626 18.2452 308.283 18.3785C308.024 18.4791 307.635 18.5988 306.919 18.6314C306.144 18.6668 305.912 18.6743 303.95 18.6743C301.988 18.6743 301.756 18.6668 300.981 18.6314C300.265 18.5988 299.876 18.4791 299.617 18.3785C299.274 18.2452 299.03 18.086 298.773 17.8289C298.515 17.5718 298.356 17.3271 298.223 16.9842C298.122 16.7253 298.003 16.3363 297.97 15.62C297.935 14.8453 297.927 14.6129 297.927 12.6513C297.927 10.6896 297.935 10.4573 297.97 9.68255C298.003 8.96624 298.122 8.57728 298.223 8.31839C298.356 7.97549 298.515 7.7307 298.773 7.47366C299.03 7.21657 299.274 7.05733 299.617 6.92407C299.876 6.82347 300.265 6.70381 300.981 6.67112C301.756 6.63576 301.989 6.62828 303.95 6.62828ZM303.95 8.87863C301.867 8.87863 300.178 10.5677 300.178 12.6513C300.178 14.7349 301.867 16.4239 303.95 16.4239C306.034 16.4239 307.723 14.7349 307.723 12.6513C307.723 10.5677 306.034 8.87863 303.95 8.87863ZM303.95 15.1002C302.598 15.1002 301.501 14.0038 301.501 12.6513C301.501 11.2988 302.598 10.2024 303.95 10.2024C305.303 10.2024 306.399 11.2988 306.399 12.6513C306.399 14.0038 305.303 15.1002 303.95 15.1002ZM308.754 8.72958C308.754 9.21649 308.359 9.61115 307.872 9.61115C307.385 9.61115 306.99 9.21649 306.99 8.72958C306.99 8.24268 307.385 7.84797 307.872 7.84797C308.359 7.84797 308.754 8.24268 308.754 8.72958Z" fill="black"/>
<path d="M303.95 24.8544C310.69 24.8544 316.153 19.3909 316.153 12.6513C316.153 5.91174 310.69 0.448242 303.95 0.448242C297.211 0.448242 291.747 5.91174 291.747 12.6513C291.747 19.3909 297.211 24.8544 303.95 24.8544Z" stroke="white"/>
</g>
<g clip-path="url(#clip2_1_3689)">
<path d="M162.968 6.31274H144.535V19.1908H162.968V6.31274Z" fill="white"/>
<path fill-rule="evenodd" clip-rule="evenodd" d="M153.626 0C160.594 0 166.251 5.65732 166.251 12.6255C166.251 19.5937 160.594 25.251 153.626 25.251C146.657 25.251 141 19.5937 141 12.6255C141 5.65732 146.657 0 153.626 0ZM161.187 8.82691C161.005 8.14785 160.471 7.61319 159.792 7.43169C158.561 7.10185 153.626 7.10185 153.626 7.10185C153.626 7.10185 148.69 7.10185 147.459 7.43169C146.781 7.61319 146.246 8.14785 146.064 8.82691C145.735 10.0577 145.735 12.6256 145.735 12.6256C145.735 12.6256 145.735 15.1935 146.064 16.4241C146.246 17.1032 146.781 17.638 147.459 17.8195C148.69 18.1492 153.626 18.1492 153.626 18.1492C153.626 18.1492 158.561 18.1492 159.792 17.8195C160.471 17.638 161.005 17.1032 161.187 16.4241C161.516 15.1935 161.516 12.6256 161.516 12.6256C161.516 12.6256 161.516 10.0577 161.187 8.82691ZM152.047 14.9929V10.2583L156.147 12.6256L152.047 14.9929Z" fill="black"/>
<path d="M153.626 24.7695C160.333 24.7695 165.77 19.3324 165.77 12.6255C165.77 5.91851 160.333 0.481445 153.626 0.481445C146.919 0.481445 141.482 5.91851 141.482 12.6255C141.482 19.3324 146.919 24.7695 153.626 24.7695Z" stroke="white"/>
</g>
<g clip-path="url(#clip3_1_3689)">
<path d="M362.342 4.89307H346.591V20.8796H362.342V4.89307Z" fill="white"/>
<path d="M352.703 18.9988H349.882V23.4656H352.703V18.9988Z" fill="white"/>
<path fill-rule="evenodd" clip-rule="evenodd" d="M354.349 0.896484C347.857 0.896484 342.594 6.15937 342.594 12.6512C342.594 17.6312 345.692 21.8884 350.065 23.6011C349.962 22.671 349.869 21.2407 350.106 20.2254C350.319 19.308 351.484 14.3825 351.484 14.3825C351.484 14.3825 351.132 13.6784 351.132 12.6373C351.132 11.0028 352.08 9.78255 353.259 9.78255C354.262 9.78255 354.747 10.5356 354.747 11.4384C354.747 12.447 354.105 13.9548 353.773 15.3521C353.496 16.5222 354.36 17.4763 355.514 17.4763C357.603 17.4763 359.209 15.2734 359.209 12.0935C359.209 9.27907 357.187 7.31125 354.299 7.31125C350.954 7.31125 348.991 9.81989 348.991 12.4124C348.991 13.4228 349.38 14.5061 349.866 15.0949C349.962 15.2113 349.976 15.3134 349.948 15.4321C349.858 15.8034 349.66 16.6018 349.621 16.7652C349.57 16.9803 349.451 17.026 349.228 16.9224C347.76 16.239 346.842 14.0927 346.842 12.3686C346.842 8.66057 349.536 5.25535 354.609 5.25535C358.686 5.25535 361.855 8.16094 361.855 12.0442C361.855 16.0954 359.301 19.3557 355.756 19.3557C354.565 19.3557 353.445 18.7369 353.062 18.006C353.062 18.006 352.472 20.2503 352.329 20.8003C352.064 21.8214 351.347 23.1012 350.868 23.8818C351.968 24.2224 353.137 24.406 354.349 24.406C360.841 24.406 366.103 19.1434 366.103 12.6512C366.103 6.15937 360.841 0.896484 354.349 0.896484Z" fill="black"/>
<path d="M354.349 24.8544C361.088 24.8544 366.552 19.3909 366.552 12.6513C366.552 5.91174 361.088 0.448242 354.349 0.448242C347.609 0.448242 342.146 5.91174 342.146 12.6513C342.146 19.3909 347.609 24.8544 354.349 24.8544Z" stroke="white"/>
</g>
<g clip-path="url(#clip4_1_3689)">
<path d="M256.5 3.57495H251.955V23.0156H256.5V3.57495Z" fill="white"/>
<path d="M259.909 3.1228H247.864V16.9121H259.909V3.1228Z" fill="white"/>
<path fill-rule="evenodd" clip-rule="evenodd" d="M253.978 23.4946L254 23.4947H253.992L253.978 23.4946ZM254.062 23.4947H254.054L254.077 23.4946L254.062 23.4947ZM253.942 23.4944L253.967 23.4945H253.953L253.942 23.4944ZM254.102 23.4945H254.088L254.112 23.4944L254.102 23.4945ZM253.911 23.4942L253.927 23.4943L253.914 23.4942H253.911ZM254.14 23.4942L254.127 23.4943L254.143 23.4942H254.14ZM254.171 23.4938L254.165 23.4939L254.187 23.4936L254.171 23.4938ZM253.867 23.4936L253.889 23.4939L253.883 23.4938L253.867 23.4936ZM254.211 23.4933L254.197 23.4935L254.224 23.4931L254.211 23.4933ZM253.83 23.4931L253.857 23.4935L253.844 23.4933L253.83 23.4931ZM254.25 23.4926L254.232 23.4929L254.257 23.4924L254.25 23.4926ZM253.797 23.4924L253.822 23.4929L253.804 23.4926L253.797 23.4924ZM253.756 23.4916L253.779 23.4921L253.775 23.492L253.756 23.4916ZM254.28 23.492L254.276 23.4921L254.298 23.4916L254.28 23.492ZM253.718 23.4906L253.748 23.4914L253.736 23.4911L253.718 23.4906ZM254.319 23.4911L254.306 23.4914L254.337 23.4906L254.319 23.4911ZM254.359 23.49L254.339 23.4906L254.371 23.4897L254.359 23.49ZM253.684 23.4897L253.715 23.4906L253.695 23.49L253.684 23.4897ZM253.659 23.4889L253.682 23.4896L253.661 23.4889L253.642 23.4883L253.659 23.4889ZM254.394 23.4889L254.373 23.4896L254.395 23.4889L254.413 23.4883L254.394 23.4889ZM254.427 23.4879L254.415 23.4883L254.45 23.4871L254.427 23.4879ZM253.605 23.4871L253.639 23.4883L253.628 23.4879L253.605 23.4871ZM253.571 23.4858L253.607 23.4871L253.587 23.4864L253.571 23.4858ZM254.467 23.4864L254.447 23.4871L254.483 23.4858L254.467 23.4864ZM253.539 23.4844L253.574 23.4859L253.546 23.4848L253.539 23.4844ZM254.508 23.4848L254.481 23.4859L254.516 23.4844L254.508 23.4848ZM253.492 23.4824L253.53 23.4841L253.521 23.4838L253.492 23.4824ZM254.534 23.4838L254.525 23.4841L254.562 23.4824L254.534 23.4838ZM253.459 23.4809L253.498 23.4826L253.48 23.4819L253.459 23.4809ZM254.575 23.4819L254.556 23.4826L254.595 23.4809L254.575 23.4819ZM253.427 23.4792L253.466 23.4811L253.439 23.4799L253.427 23.4792ZM254.616 23.4799L254.588 23.4811L254.628 23.4792L254.616 23.4799ZM254.649 23.4781L254.613 23.48L254.645 23.4783L254.682 23.4763L254.649 23.4781ZM253.41 23.4783L253.442 23.48L253.406 23.4781L253.373 23.4763L253.41 23.4783ZM254.682 23.4762L254.666 23.4771L254.706 23.4749L254.682 23.4762ZM253.348 23.4749L253.389 23.4771L253.373 23.4762L253.348 23.4749ZM253.316 23.4729L253.356 23.4753L253.331 23.4739L253.316 23.4729ZM254.723 23.4739L254.698 23.4753L254.738 23.4729L254.723 23.4739ZM253.296 23.4716L253.332 23.4739L253.298 23.4718L253.264 23.4696L253.296 23.4716ZM254.757 23.4718L254.723 23.4739L254.759 23.4716L254.79 23.4696L254.757 23.4718ZM254.789 23.4697L254.777 23.4705L254.815 23.4679L254.789 23.4697ZM253.24 23.4679L253.278 23.4705L253.266 23.4697L253.24 23.4679ZM253.208 23.4657L253.245 23.4684L253.225 23.467L253.208 23.4657ZM254.83 23.467L254.809 23.4684L254.847 23.4657L254.83 23.467ZM253.177 23.4635L253.211 23.466L253.184 23.4641L253.177 23.4635ZM254.87 23.4641L254.843 23.466L254.878 23.4635L254.87 23.4641ZM253.135 23.4603L253.165 23.4626L253.158 23.4621L253.135 23.4603ZM254.897 23.4621L254.889 23.4626L254.92 23.4603L254.897 23.4621ZM254.936 23.4591L254.922 23.4601L254.953 23.4577L254.936 23.4591ZM253.102 23.4577L253.132 23.4601L253.118 23.4591L253.102 23.4577ZM253.071 23.4552L253.097 23.4573L253.079 23.4558L253.071 23.4552ZM254.976 23.4558L254.958 23.4573L254.984 23.4552L254.976 23.4558ZM255.044 23.45L255.037 23.4506L255.055 23.449L255.044 23.45ZM253 23.449L253.018 23.4506L253.011 23.45L253 23.449ZM252.968 23.4461L252.981 23.4474L252.973 23.4466L252.968 23.4461ZM255.082 23.4466L255.073 23.4474L255.087 23.4461L255.082 23.4466ZM252.225 23.3302C246.795 22.4814 242.637 17.8024 242.637 12.165C242.637 5.92688 247.729 0.862305 254 0.862305C260.271 0.862305 265.363 5.92688 265.363 12.165C265.363 17.8024 261.205 22.4814 255.776 23.3302V15.4322H258.423L258.927 12.165H255.776V10.0448C255.776 9.15097 256.216 8.27969 257.627 8.27969H259.06V5.49817C259.06 5.49817 257.76 5.27741 256.517 5.27741C253.921 5.27741 252.225 6.84213 252.225 9.67486V12.165H249.339V15.4322H252.225V23.3302Z" fill="black"/>
<path d="M254 23.8986C260.515 23.8986 265.796 18.6452 265.796 12.1649C265.796 5.68452 260.515 0.431152 254 0.431152C247.485 0.431152 242.204 5.68452 242.204 12.1649C242.204 18.6452 247.485 23.8986 254 23.8986Z" stroke="white"/>
</g>
<defs>
<clipPath id="clip0_1_3689">
<rect width="26" height="26" fill="white" transform="translate(191)"/>
</clipPath>
<clipPath id="clip1_1_3689">
<rect width="26" height="26" fill="white" transform="translate(291)"/>
</clipPath>
<clipPath id="clip2_1_3689">
<rect width="26" height="26" fill="white" transform="translate(141)"/>
</clipPath>
<clipPath id="clip3_1_3689">
<rect width="26" height="26" fill="white" transform="translate(341)"/>
</clipPath>
<clipPath id="clip4_1_3689">
<rect width="26" height="25" fill="white" transform="translate(241)"/>
</clipPath>
</defs>
</svg>
