<svg width="104" height="9" viewBox="0 0 104 9" fill="none" xmlns="http://www.w3.org/2000/svg">
<path d="M4.3525 8.03C3.69917 8.03 3.1025 7.87333 2.5625 7.56C2.02917 7.24667 1.60583 6.82 1.2925 6.28C0.985833 5.74 0.8325 5.14667 0.8325 4.5C0.8325 3.85333 0.985833 3.26 1.2925 2.72C1.60583 2.18 2.0325 1.75333 2.5725 1.44C3.1125 1.12667 3.7125 0.97 4.3725 0.97C5.0325 0.97 5.62917 1.12333 6.1625 1.43C6.7025 1.73667 7.12583 2.16 7.4325 2.7C7.73917 3.23333 7.8925 3.82667 7.8925 4.48C7.8925 5.13333 7.73583 5.73333 7.4225 6.28C7.10917 6.82 6.6825 7.24667 6.1425 7.56C5.6025 7.87333 5.00583 8.03 4.3525 8.03ZM4.3525 7.66C4.93917 7.66 5.4725 7.52 5.9525 7.24C6.4325 6.95333 6.8125 6.57 7.0925 6.09C7.3725 5.60333 7.5125 5.06667 7.5125 4.48C7.5125 3.89333 7.37583 3.36333 7.1025 2.89C6.82917 2.41 6.4525 2.03333 5.9725 1.76C5.49917 1.48 4.96583 1.34 4.3725 1.34C3.77917 1.34 3.23917 1.48 2.7525 1.76C2.2725 2.04 1.8925 2.42333 1.6125 2.91C1.33917 3.39 1.2025 3.92 1.2025 4.5C1.2025 5.08 1.33917 5.61333 1.6125 6.1C1.8925 6.58 2.2725 6.96 2.7525 7.24C3.2325 7.52 3.76583 7.66 4.3525 7.66ZM4.4425 6.58C4.04917 6.58 3.6925 6.49333 3.3725 6.32C3.05917 6.14 2.8125 5.89333 2.6325 5.58C2.4525 5.26 2.3625 4.9 2.3625 4.5C2.3625 4.1 2.4525 3.74333 2.6325 3.43C2.8125 3.11 3.05917 2.86333 3.3725 2.69C3.6925 2.51 4.04917 2.42 4.4425 2.42C4.7825 2.42 5.08917 2.49 5.3625 2.63C5.6425 2.76333 5.86583 2.95 6.0325 3.19L5.6025 3.51C5.4625 3.31667 5.2925 3.17333 5.0925 3.08C4.8925 2.98667 4.6725 2.94 4.4325 2.94C3.99917 2.94 3.63917 3.08333 3.3525 3.37C3.0725 3.65667 2.9325 4.03333 2.9325 4.5C2.9325 4.96667 3.0725 5.34333 3.3525 5.63C3.63917 5.91667 3.99917 6.06 4.4325 6.06C4.6725 6.06 4.8925 6.01333 5.0925 5.92C5.2925 5.82667 5.4625 5.68333 5.6025 5.49L6.0325 5.8C5.86583 6.04667 5.6425 6.24 5.3625 6.38C5.08917 6.51333 4.7825 6.58 4.4425 6.58ZM12.1556 1H12.8956V7.36H16.8156V8H12.1556V1ZM19.7021 5.58V8H18.9721V5.58L16.1721 1H16.9621L19.3621 4.93L21.7621 1H22.5021L19.7021 5.58ZM30.7733 1V8H30.0633V2.4L27.3133 7.11H26.9633L24.2133 2.43V8H23.5033V1H24.1133L27.1533 6.19L30.1633 1H30.7733ZM37.4441 6.13H33.5441L32.7041 8H31.9341L35.1341 1H35.8641L39.0641 8H38.2841L37.4441 6.13ZM37.1741 5.53L35.4941 1.77L33.8141 5.53H37.1741ZM42.8392 1H43.5792V7.36H47.4992V8H42.8392V1ZM48.5779 2.74H49.2879V8H48.5779V2.74ZM48.9379 1.59C48.7912 1.59 48.6679 1.54 48.5679 1.44C48.4679 1.34 48.4179 1.22 48.4179 1.08C48.4179 0.946666 48.4679 0.83 48.5679 0.729999C48.6679 0.63 48.7912 0.58 48.9379 0.58C49.0846 0.58 49.2079 0.63 49.3079 0.729999C49.4079 0.823333 49.4579 0.936666 49.4579 1.07C49.4579 1.21667 49.4079 1.34 49.3079 1.44C49.2079 1.54 49.0846 1.59 48.9379 1.59ZM53.0034 1.13C52.6968 1.13 52.4634 1.21333 52.3034 1.38C52.1501 1.54667 52.0734 1.79333 52.0734 2.12V2.74H53.6934V3.34H52.0934V8H51.3834V3.34H50.4434V2.74H51.3834V2.09C51.3834 1.61 51.5201 1.23 51.7934 0.95C52.0734 0.67 52.4668 0.53 52.9734 0.53C53.1734 0.53 53.3668 0.56 53.5534 0.62C53.7401 0.673333 53.8968 0.753333 54.0234 0.86L53.7834 1.39C53.5768 1.21667 53.3168 1.13 53.0034 1.13ZM59.1442 5.59H54.7442C54.7842 6.13667 54.9942 6.58 55.3742 6.92C55.7542 7.25333 56.2342 7.42 56.8142 7.42C57.1409 7.42 57.4409 7.36333 57.7142 7.25C57.9876 7.13 58.2242 6.95667 58.4242 6.73L58.8242 7.19C58.5909 7.47 58.2976 7.68333 57.9442 7.83C57.5976 7.97667 57.2142 8.05 56.7942 8.05C56.2542 8.05 55.7742 7.93667 55.3542 7.71C54.9409 7.47667 54.6176 7.15667 54.3842 6.75C54.1509 6.34333 54.0342 5.88333 54.0342 5.37C54.0342 4.85667 54.1442 4.39667 54.3642 3.99C54.5909 3.58333 54.8976 3.26667 55.2842 3.04C55.6776 2.81333 56.1176 2.7 56.6042 2.7C57.0909 2.7 57.5276 2.81333 57.9142 3.04C58.3009 3.26667 58.6042 3.58333 58.8242 3.99C59.0442 4.39 59.1542 4.85 59.1542 5.37L59.1442 5.59ZM56.6042 3.31C56.0976 3.31 55.6709 3.47333 55.3242 3.8C54.9842 4.12 54.7909 4.54 54.7442 5.06H58.4742C58.4276 4.54 58.2309 4.12 57.8842 3.8C57.5442 3.47333 57.1176 3.31 56.6042 3.31ZM63.3666 1H64.1066V7.36H68.0266V8H63.3666V1ZM71.8264 7.68C71.6931 7.8 71.5264 7.89333 71.3264 7.96C71.1331 8.02 70.9297 8.05 70.7164 8.05C70.2231 8.05 69.8431 7.91667 69.5764 7.65C69.3097 7.38333 69.1764 7.00667 69.1764 6.52V3.34H68.2364V2.74H69.1764V1.59H69.8864V2.74H71.4864V3.34H69.8864V6.48C69.8864 6.79333 69.9631 7.03333 70.1164 7.2C70.2764 7.36 70.5031 7.44 70.7964 7.44C70.9431 7.44 71.0831 7.41667 71.2164 7.37C71.3564 7.32333 71.4764 7.25667 71.5764 7.17L71.8264 7.68ZM77.7334 0.58V8H77.0534V6.96C76.84 7.31333 76.5567 7.58333 76.2034 7.77C75.8567 7.95667 75.4634 8.05 75.0234 8.05C74.53 8.05 74.0834 7.93667 73.6834 7.71C73.2834 7.48333 72.97 7.16667 72.7434 6.76C72.5167 6.35333 72.4034 5.89 72.4034 5.37C72.4034 4.85 72.5167 4.38667 72.7434 3.98C72.97 3.57333 73.2834 3.26 73.6834 3.04C74.0834 2.81333 74.53 2.7 75.0234 2.7C75.45 2.7 75.8334 2.79 76.1734 2.97C76.52 3.14333 76.8034 3.4 77.0234 3.74V0.58H77.7334ZM75.0834 7.42C75.45 7.42 75.78 7.33667 76.0734 7.17C76.3734 6.99667 76.6067 6.75333 76.7734 6.44C76.9467 6.12667 77.0334 5.77 77.0334 5.37C77.0334 4.97 76.9467 4.61333 76.7734 4.3C76.6067 3.98667 76.3734 3.74667 76.0734 3.58C75.78 3.40667 75.45 3.32 75.0834 3.32C74.71 3.32 74.3734 3.40667 74.0734 3.58C73.78 3.74667 73.5467 3.98667 73.3734 4.3C73.2067 4.61333 73.1234 4.97 73.1234 5.37C73.1234 5.77 73.2067 6.12667 73.3734 6.44C73.5467 6.75333 73.78 6.99667 74.0734 7.17C74.3734 7.33667 74.71 7.42 75.0834 7.42ZM79.7807 8.05C79.634 8.05 79.5074 7.99667 79.4007 7.89C79.3007 7.78333 79.2507 7.65333 79.2507 7.5C79.2507 7.34667 79.3007 7.22 79.4007 7.12C79.5074 7.01333 79.634 6.96 79.7807 6.96C79.9274 6.96 80.054 7.01333 80.1607 7.12C80.2674 7.22 80.3207 7.34667 80.3207 7.5C80.3207 7.65333 80.2674 7.78333 80.1607 7.89C80.054 7.99667 79.9274 8.05 79.7807 8.05ZM88.757 7.36V8H83.847V7.49L86.757 4.64C87.1237 4.28 87.3704 3.97 87.497 3.71C87.6304 3.44333 87.697 3.17667 87.697 2.91C87.697 2.49667 87.5537 2.17667 87.267 1.95C86.987 1.71667 86.5837 1.6 86.057 1.6C85.237 1.6 84.6004 1.86 84.147 2.38L83.637 1.94C83.9104 1.62 84.257 1.37333 84.677 1.2C85.1037 1.02667 85.5837 0.94 86.117 0.94C86.8304 0.94 87.3937 1.11 87.807 1.45C88.227 1.78333 88.437 2.24333 88.437 2.83C88.437 3.19 88.357 3.53667 88.197 3.87C88.037 4.20333 87.7337 4.58667 87.287 5.02L84.907 7.36H88.757ZM92.4116 8.06C91.8716 8.06 91.3882 7.91667 90.9616 7.63C90.5416 7.34333 90.2116 6.93333 89.9716 6.4C89.7382 5.86 89.6216 5.22667 89.6216 4.5C89.6216 3.77333 89.7382 3.14333 89.9716 2.61C90.2116 2.07 90.5416 1.65667 90.9616 1.37C91.3882 1.08333 91.8716 0.94 92.4116 0.94C92.9516 0.94 93.4316 1.08333 93.8516 1.37C94.2782 1.65667 94.6116 2.07 94.8516 2.61C95.0916 3.14333 95.2116 3.77333 95.2116 4.5C95.2116 5.22667 95.0916 5.86 94.8516 6.4C94.6116 6.93333 94.2782 7.34333 93.8516 7.63C93.4316 7.91667 92.9516 8.06 92.4116 8.06ZM92.4116 7.4C92.8182 7.4 93.1749 7.28667 93.4816 7.06C93.7949 6.83333 94.0382 6.50333 94.2116 6.07C94.3849 5.63667 94.4716 5.11333 94.4716 4.5C94.4716 3.88667 94.3849 3.36333 94.2116 2.93C94.0382 2.49667 93.7949 2.16667 93.4816 1.94C93.1749 1.71333 92.8182 1.6 92.4116 1.6C92.0049 1.6 91.6449 1.71333 91.3316 1.94C91.0249 2.16667 90.7849 2.49667 90.6116 2.93C90.4382 3.36333 90.3516 3.88667 90.3516 4.5C90.3516 5.11333 90.4382 5.63667 90.6116 6.07C90.7849 6.50333 91.0249 6.83333 91.3316 7.06C91.6449 7.28667 92.0049 7.4 92.4116 7.4ZM101.003 7.36V8H96.0931V7.49L99.0031 4.64C99.3698 4.28 99.6165 3.97 99.7431 3.71C99.8765 3.44333 99.9431 3.17667 99.9431 2.91C99.9431 2.49667 99.7998 2.17667 99.5131 1.95C99.2331 1.71667 98.8298 1.6 98.3031 1.6C97.4831 1.6 96.8465 1.86 96.3931 2.38L95.8831 1.94C96.1565 1.62 96.5031 1.37333 96.9231 1.2C97.3498 1.02667 97.8298 0.94 98.3631 0.94C99.0765 0.94 99.6398 1.11 100.053 1.45C100.473 1.78333 100.683 2.24333 100.683 2.83C100.683 3.19 100.603 3.53667 100.443 3.87C100.283 4.20333 99.9798 4.58667 99.5331 5.02L97.1531 7.36H101.003ZM103.847 1V8H103.127V1.64H101.477V1H103.847Z" fill="#7E7E7E"/>
</svg>
